<?xml version="1.0" encoding="UTF-8"?>
<svg version="1.1" xmlns="http://www.w3.org/2000/svg" width="48" height="48">
<path d="M0 0 C0.495 1.485 0.495 1.485 1 3 C0.07421875 4.68359375 0.07421875 4.68359375 -1.3125 6.4375 C-2.75480686 8.32755596 -3.99718232 9.99436463 -5.0625 12.125 C-6.37085199 14.74170398 -8.06201059 16.81976191 -10 19 C-10.66 19 -11.32 19 -12 19 C-12.495 20.485 -12.495 20.485 -13 22 C-15.06640625 22.94921875 -15.06640625 22.94921875 -17.5625 23.6875 C-18.38878906 23.93886719 -19.21507813 24.19023437 -20.06640625 24.44921875 C-20.70449219 24.63097656 -21.34257812 24.81273438 -22 25 C-21.28972656 25.59167969 -20.57945313 26.18335937 -19.84765625 26.79296875 C-18.92855469 27.58316406 -18.00945313 28.37335937 -17.0625 29.1875 C-16.14597656 29.96480469 -15.22945312 30.74210937 -14.28515625 31.54296875 C-11.85829828 34.15235962 -11.29156698 35.50739976 -11 39 C-12.76953125 39.67578125 -12.76953125 39.67578125 -15 40 C-21.7057908 36.02247526 -26.94682567 28.81348992 -32 23 C-34.99383194 23.7195905 -34.99383194 23.7195905 -36.4375 25.625 C-38 27 -38 27 -39.875 27 C-42.87980917 25.58597216 -44.76704502 23.41903456 -47 21 C-46.34 19.35 -45.68 17.7 -45 16 C-44.01 16 -43.02 16 -42 16 C-41.731875 15.401875 -41.46375 14.80375 -41.1875 14.1875 C-40.00082594 12.00152146 -38.90400887 10.58667406 -37 9 C-36.34 9 -35.68 9 -35 9 C-34.67 7.68 -34.34 6.36 -34 5 C-32.3125 4.1875 -32.3125 4.1875 -30 4 C-27.25 6.4375 -27.25 6.4375 -25 9 C-24.36449219 8.73316406 -23.72898437 8.46632813 -23.07421875 8.19140625 C-19.03364369 6.62549088 -14.92926259 5.2878507 -10.8125 3.9375 C-9.19355222 3.40634247 -7.57504051 2.87385339 -5.95703125 2.33984375 C-5.24522705 2.10644287 -4.53342285 1.87304199 -3.80004883 1.63256836 C-1.93282258 1.0186529 -1.93282258 1.0186529 0 0 Z M-13.5 7.3125 C-14.18964844 7.52583984 -14.87929688 7.73917969 -15.58984375 7.95898438 C-19.31059263 9.17384878 -20.76634865 9.64952298 -23 13 C-23.66613335 15.27538323 -23.66613335 15.27538323 -24.125 17.6875 C-24.41375 19.110625 -24.7025 20.53375 -25 22 C-22.03 21.67 -19.06 21.34 -16 21 C-16.99 20.01 -17.98 19.02 -19 18 C-17.35 18 -15.7 18 -14 18 C-14.33 17.34 -14.66 16.68 -15 16 C-15.66 16 -16.32 16 -17 16 C-17 15.34 -17 14.68 -17 14 C-15.329375 14.061875 -15.329375 14.061875 -13.625 14.125 C-9.95633975 14.41121859 -9.95633975 14.41121859 -8 12 C-9.65 12 -11.3 12 -13 12 C-13 11.34 -13 10.68 -13 10 C-12.2575 9.9175 -11.515 9.835 -10.75 9.75 C-7.48778646 8.8603054 -6.19045122 7.51496251 -4 5 C-7.3201381 5 -10.37038735 6.2917198 -13.5 7.3125 Z M-37 12 C-37.66 13.32 -38.32 14.64 -39 16 C-38.01 16.99 -37.02 17.98 -36 19 C-34.68 18.34 -33.36 17.68 -32 17 C-32.79117904 15.00016466 -32.79117904 15.00016466 -34 13 C-34.99 12.67 -35.98 12.34 -37 12 Z M-29 15 C-28.67 16.65 -28.34 18.3 -28 20 C-27.34 20 -26.68 20 -26 20 C-25.67 18.35 -25.34 16.7 -25 15 C-26.32 15 -27.64 15 -29 15 Z M-22 29 C-20.50902342 32.7952131 -18.24299151 34.61042731 -15 37 C-14.6689011 33.7769076 -14.6689011 33.7769076 -17.375 31.3125 C-19.66706542 28.77965649 -19.66706542 28.77965649 -22 29 Z " fill="#FEFEFE" transform="translate(47,4)"/>
</svg>
